<?xml version="1.0" encoding="utf-8"?>
<!-- Generator: Adobe Illustrator 24.1.1, SVG Export Plug-In . SVG Version: 6.00 Build 0)  -->
<svg version="1.1" id="Capa_1" xmlns="http://www.w3.org/2000/svg" xmlns:xlink="http://www.w3.org/1999/xlink" x="0px" y="0px"
	 viewBox="0 0 138 166" style="enable-background:new 0 0 138 166;" xml:space="preserve">
<style type="text/css">
	.st0{fill:#FFFFFF;}
</style>
<g>
	<path class="st0" d="M99.15,127.54h-60.3c-1.7,0-3.08-1.38-3.08-3.08V41.55c0-1.7,1.38-3.08,3.08-3.08h60.3
		c1.7,0,3.08,1.38,3.08,3.08v82.91C102.23,126.15,100.85,127.54,99.15,127.54 M41.93,121.38h54.14V44.62H41.93V121.38z"/>
	<path class="st0" d="M50.74,59.17c-0.43,0-0.82-0.07-1.18-0.23c-0.39-0.16-0.72-0.39-1.01-0.65c-0.59-0.59-0.91-1.37-0.91-2.18
		c0-0.81,0.33-1.6,0.91-2.18c0.85-0.85,2.22-1.14,3.36-0.65c0.39,0.13,0.72,0.36,0.98,0.65c0.3,0.29,0.52,0.62,0.69,1.01
		c0.16,0.36,0.23,0.75,0.23,1.17c0,0.81-0.33,1.6-0.92,2.18c-0.26,0.26-0.62,0.49-0.98,0.65C51.52,59.11,51.13,59.17,50.74,59.17"/>
	<path class="st0" d="M87.27,59.18H61.33c-1.7,0-3.08-1.38-3.08-3.08c0-1.7,1.38-3.08,3.08-3.08h25.94c1.7,0,3.08,1.38,3.08,3.08
		C90.35,57.8,88.97,59.18,87.27,59.18"/>
	<path class="st0" d="M50.74,77.11c-0.43,0-0.82-0.07-1.18-0.23c-0.39-0.16-0.72-0.39-1.01-0.68c-0.29-0.3-0.52-0.62-0.69-0.98
		c-0.13-0.39-0.23-0.78-0.23-1.18c0-0.82,0.33-1.63,0.91-2.19c0.13-0.16,0.29-0.26,0.46-0.39c0.16-0.09,0.36-0.19,0.55-0.29
		c0.16-0.07,0.36-0.13,0.55-0.16c1.01-0.19,2.06,0.13,2.81,0.84c0.55,0.55,0.88,1.37,0.88,2.19c0,0.39-0.07,0.78-0.23,1.18
		c-0.16,0.36-0.39,0.68-0.65,0.98C52.33,76.78,51.55,77.11,50.74,77.11"/>
	<path class="st0" d="M87.27,77.11H61.33c-1.7,0-3.08-1.38-3.08-3.08c0-1.7,1.38-3.08,3.08-3.08h25.94c1.7,0,3.08,1.38,3.08,3.08
		C90.35,75.74,88.97,77.11,87.27,77.11"/>
	<path class="st0" d="M50.74,95.05c-0.82,0-1.6-0.33-2.19-0.91c-0.29-0.29-0.52-0.62-0.69-0.98c-0.13-0.39-0.23-0.78-0.23-1.21
		c0-0.78,0.33-1.6,0.91-2.15c0.29-0.29,0.62-0.52,1.01-0.68c0.16-0.07,0.36-0.13,0.55-0.16c0.63-0.13,1.24-0.07,1.8,0.16
		c0.36,0.16,0.72,0.39,0.98,0.68c0.3,0.26,0.52,0.62,0.69,0.98c0.16,0.39,0.23,0.78,0.23,1.17c0,0.42-0.07,0.82-0.23,1.21
		c-0.16,0.36-0.39,0.69-0.69,0.98c-0.26,0.29-0.62,0.52-0.98,0.68C51.52,94.95,51.13,95.05,50.74,95.05"/>
	<path class="st0" d="M87.27,95.04H61.33c-1.7,0-3.08-1.38-3.08-3.08c0-1.7,1.38-3.08,3.08-3.08h25.94c1.7,0,3.08,1.38,3.08,3.08
		C90.35,93.67,88.97,95.04,87.27,95.04"/>
	<path class="st0" d="M50.74,112.99c-0.43,0-0.82-0.1-1.18-0.23c-0.39-0.16-0.72-0.39-1.01-0.69c-0.29-0.29-0.52-0.62-0.69-1.01
		c-0.13-0.36-0.23-0.75-0.23-1.18c0-0.81,0.33-1.6,0.91-2.18c0.72-0.69,1.76-1.04,2.77-0.82c0.19,0.03,0.39,0.1,0.59,0.16
		c0.36,0.16,0.72,0.39,1.01,0.65c0.55,0.59,0.88,1.37,0.88,2.18c0,0.42-0.07,0.82-0.23,1.18c-0.16,0.39-0.39,0.72-0.65,1.01
		c-0.3,0.29-0.66,0.52-1.01,0.69C51.52,112.89,51.13,112.99,50.74,112.99"/>
	<path class="st0" d="M87.27,112.98H61.33c-1.7,0-3.08-1.38-3.08-3.08c0-1.7,1.38-3.08,3.08-3.08h25.94c1.7,0,3.08,1.38,3.08,3.08
		C90.35,111.6,88.97,112.98,87.27,112.98"/>
</g>
</svg>
